<svg width="20" height="20" viewBox="0 0 20 20" fill="none" xmlns="http://www.w3.org/2000/svg">
<g id="vuesax/linear/trade">
<g id="vuesax/linear/trade_2">
<g id="trade">
<path id="Vector" d="M12.9167 12.5C12.775 12.5 12.625 12.4916 12.4833 12.4833C12.275 9.84163 10.1583 7.72495 7.51666 7.51662C7.50832 7.37495 7.5 7.22496 7.5 7.08329C7.5 4.09163 9.925 1.66663 12.9167 1.66663C15.9083 1.66663 18.3333 4.09163 18.3333 7.08329C18.3333 10.075 15.9083 12.5 12.9167 12.5Z" stroke="black" stroke-opacity="0.8" stroke-width="1.5" stroke-linecap="round" stroke-linejoin="round"/>
<path id="Vector_2" d="M7.08366 18.3333C4.09199 18.3333 1.66699 15.9083 1.66699 12.9167C1.66699 9.925 4.09199 7.5 7.08366 7.5C7.22533 7.5 7.37532 7.50832 7.51698 7.51666C10.1586 7.72499 12.2753 9.84168 12.4837 12.4833C12.492 12.625 12.5003 12.775 12.5003 12.9167C12.5003 15.9083 10.0753 18.3333 7.08366 18.3333Z" stroke="black" stroke-opacity="0.8" stroke-width="1.5" stroke-linecap="round" stroke-linejoin="round"/>
<path id="Vector_3" d="M2.50033 1.66663C2.04199 1.66663 1.66699 2.04163 1.66699 2.49996V4.65829C1.66699 5.39996 2.56699 5.77495 3.09199 5.24995L5.25032 3.09162C5.76698 2.56662 5.40032 1.66663 4.65866 1.66663H2.50033Z" stroke="black" stroke-opacity="0.8" stroke-width="1.5" stroke-linecap="round" stroke-linejoin="round"/>
<path id="Vector_4" d="M17.5001 18.3333C17.9584 18.3333 18.3334 17.9583 18.3334 17.5V15.3417C18.3334 14.6 17.4334 14.225 16.9084 14.75L14.7501 16.9083C14.2334 17.4333 14.6001 18.3333 15.3418 18.3333H17.5001Z" stroke="black" stroke-opacity="0.8" stroke-width="1.5" stroke-linecap="round" stroke-linejoin="round"/>
<path id="Vector_5" opacity="0.01" fill-rule="evenodd" clip-rule="evenodd" d="M20 0V20H0V0H20Z" fill="black" fill-opacity="0.8"/>
</g>
</g>
</g>
</svg>
