<svg width="20" height="20" viewBox="0 0 20 20" fill="none" xmlns="http://www.w3.org/2000/svg">
<g id="wallet-3">
<g id="wallet-3_2">
<path id="Vector" d="M10.833 9.29163H5.83301" stroke="black" stroke-opacity="0.8" stroke-width="1.5" stroke-linecap="round" stroke-linejoin="round"/>
<path id="Vector_2" d="M1.66699 9.2917V5.4417C1.66699 3.7417 3.04199 2.3667 4.74199 2.3667H9.42532C11.1253 2.3667 12.5003 3.42503 12.5003 5.12503" stroke="black" stroke-opacity="0.8" stroke-width="1.5" stroke-linecap="round" stroke-linejoin="round"/>
<path id="Vector_3" d="M14.117 11.8165C14.3253 12.5915 15.092 13.0832 15.892 13.0832H16.667V14.2915C16.667 16.1332 15.1753 17.6249 13.3337 17.6249H5.00033C3.15866 17.6249 1.66699 16.1332 1.66699 14.2915V8.45821C1.66699 6.61654 3.15866 5.12488 5.00033 5.12488H13.3337C15.167 5.12488 16.667 6.62488 16.667 8.45821V9.6665H15.767C15.3003 9.6665 14.8753 9.84987 14.567 10.1665C14.1503 10.5665 13.9503 11.1832 14.117 11.8165Z" stroke="black" stroke-opacity="0.8" stroke-width="1.5" stroke-linecap="round" stroke-linejoin="round"/>
<path id="Vector_4" d="M18.3329 12.2334C18.3329 12.7001 17.9495 13.0834 17.4745 13.0834H15.8662C14.9662 13.0834 14.1412 12.4251 14.0662 11.5251C14.0162 11.0001 14.2162 10.5084 14.5662 10.1668C14.8745 9.85011 15.2995 9.66675 15.7662 9.66675H17.4745C17.9495 9.66675 18.3329 10.0501 18.3329 10.5168V12.2334Z" stroke="black" stroke-opacity="0.8" stroke-width="1.5" stroke-linecap="round" stroke-linejoin="round"/>
</g>
</g>
</svg>
